<?xml version="1.0" encoding="UTF-8" standalone="no" ?>
<!DOCTYPE svg PUBLIC "-//W3C//DTD SVG 1.1//EN" "http://www.w3.org/Graphics/SVG/1.1/DTD/svg11.dtd">
<svg xmlns="http://www.w3.org/2000/svg" xmlns:xlink="http://www.w3.org/1999/xlink" version="1.1" width="1280" height="1024" viewBox="0 0 1280 1024" xml:space="preserve">
<desc>Created with Fabric.js 5.3.0</desc>
<defs>
</defs>
<g transform="matrix(1 0 0 1 640 512)" id="background-logo"  >
<rect style="stroke: none; stroke-width: 0; stroke-dasharray: none; stroke-linecap: butt; stroke-dashoffset: 0; stroke-linejoin: miter; stroke-miterlimit: 4; fill: rgb(255,255,255); fill-opacity: 0; fill-rule: nonzero; opacity: 1;"  paint-order="stroke"  x="-640" y="-512" rx="0" ry="0" width="1280" height="1024" />
</g>
<g transform="matrix(1.9211538461538462 0 0 1.9211538461538462 640 392.97272779232145)" id="logo-logo"  >
<g style=""  paint-order="stroke"   >
		<g transform="matrix(0.08008619348315013 0 0 -0.08008619348315013 0 26.951006261917087)"  >
<path style="stroke: none; stroke-width: 1; stroke-dasharray: none; stroke-linecap: butt; stroke-dashoffset: 0; stroke-linejoin: miter; stroke-miterlimit: 4; fill: rgb(54,152,136); fill-rule: evenodd; opacity: 1;"  paint-order="stroke"  transform=" translate(-1071.854455, -728.9142200000001)" d="M 1090.84 685.805 C 742.992 1294.86 897.004 1455.43 392.922 1455.43 C 180.047 1455.43 5.87891 1281.26 5.87891 1068.38 L 5.87891 1068.3700000000001 C 5.87891 855.488 180.047 681.32 392.922 681.32 L 684.805 681.32 L 684.805 389.441 C 684.805 176.563 858.969 2.39844 1071.85 2.39844 L 1071.86 2.39844 C 1284.7399999999998 2.39844 1458.9099999999999 176.563 1458.9099999999999 389.441 L 1458.9099999999999 681.32 L 1750.79 681.32 C 1963.67 681.32 2137.83 855.488 2137.83 1068.3700000000001 L 2137.83 1068.38 C 2137.83 1281.2600000000002 1963.6599999999999 1455.43 1750.79 1455.43 C 1265.42 1455.43 1338.3799999999999 1203.42 1090.84 685.8050000000001" stroke-linecap="round" />
</g>
		<g transform="matrix(0.08008619348315013 0 0 -0.08008619348315013 -1.1379811624200897 -52.54381314959093)"  >
<path style="stroke: none; stroke-width: 1; stroke-dasharray: none; stroke-linecap: butt; stroke-dashoffset: 0; stroke-linejoin: miter; stroke-miterlimit: 4; fill: rgb(245,182,137); fill-rule: evenodd; opacity: 1;"  paint-order="stroke"  transform=" translate(-1057.645, -1721.5300000000002)" d="M 1057.64 2048.57 C 1243.66 2048.57 1394.45 1902.14 1394.45 1721.5300000000002 C 1394.45 1540.9100000000003 1243.66 1394.4900000000002 1057.64 1394.4900000000002 C 871.633 1394.4900000000002 720.8400000000001 1540.9100000000003 720.8400000000001 1721.5300000000002 C 720.8400000000001 1902.1400000000003 871.6330000000002 2048.57 1057.64 2048.57" stroke-linecap="round" />
</g>
		<g transform="matrix(0.08008619348315013 0 0 -0.08008619348315013 19.197104655853934 -53.40233714373025)"  >
<path style="stroke: none; stroke-width: 1; stroke-dasharray: none; stroke-linecap: butt; stroke-dashoffset: 0; stroke-linejoin: miter; stroke-miterlimit: 4; fill: rgb(99,250,215); fill-rule: evenodd; opacity: 1;"  paint-order="stroke"  transform=" translate(-1311.56, -1732.25)" d="M 1391.95 1761.39 C 1392.6000000000001 1756.18 1393.13 1750.95 1393.53 1745.67 L 1229.59 1703.1100000000001 L 1229.59 1721.0900000000001 L 1391.9499999999998 1761.39" stroke-linecap="round" />
</g>
		<g transform="matrix(0.08008619348315013 0 0 -0.08008619348315013 -17.904506285278444 -35.37173154293387)"  >
<path style="stroke: none; stroke-width: 1; stroke-dasharray: none; stroke-linecap: butt; stroke-dashoffset: 0; stroke-linejoin: miter; stroke-miterlimit: 4; fill: rgb(99,250,215); fill-rule: evenodd; opacity: 1;"  paint-order="stroke"  transform=" translate(-848.289, -1507.1100000000001)" d="M 821.543 1488.32 C 817.9060000000001 1491.79 814.355 1495.35 810.879 1498.98 L 885.6990000000001 1525.9 L 885.6990000000001 1513.75 L 821.5430000000001 1488.32" stroke-linecap="round" />
</g>
		<g transform="matrix(0.08008619348315013 0 0 -0.08008619348315013 -21.472706592823442 -53.445984119178604)"  >
<path style="stroke: none; stroke-width: 1; stroke-dasharray: none; stroke-linecap: butt; stroke-dashoffset: 0; stroke-linejoin: miter; stroke-miterlimit: 4; fill: rgb(99,250,215); fill-rule: evenodd; opacity: 1;"  paint-order="stroke"  transform=" translate(-803.7345, -1732.795)" d="M 721.77 1745.89 C 722.188 1751.38 722.746 1756.8400000000001 723.441 1762.26 L 885.6990000000001 1721.09 L 885.6990000000001 1703.33 L 721.7700000000001 1745.8899999999999" stroke-linecap="round" />
</g>
		<g transform="matrix(0.08008619348315013 0 0 -0.08008619348315013 -1.1375006452591947 -76.0571195562438)"  >
<path style="stroke: none; stroke-width: 1; stroke-dasharray: none; stroke-linecap: butt; stroke-dashoffset: 0; stroke-linejoin: miter; stroke-miterlimit: 4; fill: rgb(54,152,136); fill-rule: nonzero; opacity: 1;"  paint-order="stroke"  transform=" translate(-1057.651, -2015.13)" d="M 849.297 2128.48 L 1266 2128.48 L 1336.88 1901.78 L 778.422 1901.78 L 849.297 2128.48" stroke-linecap="round" />
</g>
		<g transform="matrix(0.08008619348315013 0 0 -0.08008619348315013 -1.1378610331299228 -44.20603954606014)"  >
<path style="stroke: none; stroke-width: 1; stroke-dasharray: none; stroke-linecap: butt; stroke-dashoffset: 0; stroke-linejoin: miter; stroke-miterlimit: 4; fill: rgb(54,152,136); fill-rule: evenodd; opacity: 1;"  paint-order="stroke"  transform=" translate(-1057.6464999999998, -1617.42)" d="M 885.703 1721.09 L 1229.59 1721.09 L 1229.59 1513.75 L 885.703 1513.75 L 885.703 1721.09" stroke-linecap="round" />
</g>
		<g transform="matrix(0.08008619348315013 0 0 -0.08008619348315013 24.371874047767733 -34.169637778751735)"  >
<path style="stroke: none; stroke-width: 1; stroke-dasharray: none; stroke-linecap: butt; stroke-dashoffset: 0; stroke-linejoin: miter; stroke-miterlimit: 4; fill: rgb(54,152,136); fill-rule: evenodd; opacity: 1;"  paint-order="stroke"  transform=" translate(-1376.1750000000002, -1492.1)" d="M 1385.45 1494.58 L 1385.45 1485.26 L 1367.52 1485.26 L 1366.9 1485.45 L 1370.96 1498.94 L 1385.45 1494.5800000000002" stroke-linecap="round" />
</g>
		<g transform="matrix(0.08008619348315013 0 0 -0.08008619348315013 15.674913866465033 -35.617195725959704)"  >
<path style="stroke: none; stroke-width: 1; stroke-dasharray: none; stroke-linecap: butt; stroke-dashoffset: 0; stroke-linejoin: miter; stroke-miterlimit: 4; fill: rgb(99,250,215); fill-rule: evenodd; opacity: 1;"  paint-order="stroke"  transform=" translate(-1267.58, -1510.175)" d="M 1305.57 1500.25 C 1301.8899999999999 1496.37 1298.1299999999999 1492.57 1294.26 1488.87 L 1229.59 1513.75 L 1229.59 1531.48 L 1305.57 1500.25" stroke-linecap="round" />
</g>
		<g transform="matrix(0.08008619348315013 0 0 -0.08008619348315013 0.867176906914267 -21.189226957664516)"  >
<path style="stroke: rgb(99,250,215); stroke-width: 44.41289902; stroke-dasharray: none; stroke-linecap: round; stroke-dashoffset: 0; stroke-linejoin: round; stroke-miterlimit: 22.92560005; fill: none; fill-rule: nonzero; opacity: 1;"  paint-order="stroke"  transform=" translate(-1082.6825, -1330.0194932792224)" d="M 743.305 1448.48 C 743.305 1448.48 1034.5 889.816 1422.06 1457.27" stroke-linecap="round" />
</g>
		<g transform="matrix(0.08008619348315013 0 0 -0.08008619348315013 20.751504547276852 14.840876513325668)"  >
<path style="stroke: rgb(99,250,215); stroke-width: 44.41289902; stroke-dasharray: none; stroke-linecap: round; stroke-dashoffset: 0; stroke-linejoin: round; stroke-miterlimit: 22.92560005; fill: none; fill-rule: nonzero; opacity: 1;"  paint-order="stroke"  transform=" translate(-1330.9690869326928, -880.1279214120835)" d="M 1062.96 1202.89 C 976.531 395.461 1711.12 398.262 1593.22 919.617" stroke-linecap="round" />
</g>
		<g transform="matrix(0.08008619348315013 0 0 -0.08008619348315013 41.032211855952426 5.257633136751878)"  >
<path style="stroke: none; stroke-width: 1; stroke-dasharray: none; stroke-linecap: butt; stroke-dashoffset: 0; stroke-linejoin: miter; stroke-miterlimit: 4; fill: rgb(99,250,215); fill-rule: evenodd; opacity: 1;"  paint-order="stroke"  transform=" translate(-1584.2050871296879, -999.7895379751192)" d="M 1583.47 1082.72 C 1626.22 1083.1000000000001 1661.21 1046.28 1661.6100000000001 1000.48 C 1662.0200000000002 954.676 1627.69 917.242 1584.94 916.859 C 1542.2 916.484 1507.21 953.3050000000001 1506.8 999.105 C 1506.3999999999999 1044.9 1540.73 1082.34 1583.47 1082.72" stroke-linecap="round" />
</g>
		<g transform="matrix(0.08008619348315013 0 0 -0.08008619348315013 41.032211855952426 5.257633136751878)"  >
<path style="stroke: rgb(99,250,215); stroke-width: 44.41289902; stroke-dasharray: none; stroke-linecap: round; stroke-dashoffset: 0; stroke-linejoin: round; stroke-miterlimit: 22.92560005; fill: none; fill-rule: nonzero; opacity: 1;"  paint-order="stroke"  transform=" translate(-1584.2050871296879, -999.7895379751192)" d="M 1583.47 1082.72 C 1626.22 1083.1000000000001 1661.21 1046.28 1661.6100000000001 1000.48 C 1662.0200000000002 954.676 1627.69 917.242 1584.94 916.859 C 1542.2 916.484 1507.21 953.3050000000001 1506.8 999.105 C 1506.3999999999999 1044.9 1540.73 1082.34 1583.47 1082.72 z" stroke-linecap="round" />
</g>
</g>
</g>
<g transform="matrix(1.9211538461538462 0 0 1.9211538461538462 641.4644955762018 653.8094014828928)" id="text-logo"  >
<g style=""  paint-order="stroke"   >
		<g transform="matrix(1 0 0 1 -5.684342e-14 0)" id="text-logo-path-0"  >
<path style="stroke: none; stroke-width: 0; stroke-dasharray: none; stroke-linecap: butt; stroke-dashoffset: 0; stroke-linejoin: miter; stroke-miterlimit: 4; fill: rgb(54,152,136); fill-rule: nonzero; opacity: 1;"  paint-order="stroke"  transform=" translate(-272.9014852439636, 21.955)" d="M 9.89 0 L 2.77 0 Q 2.52 0 2.52 -0.32 L 2.52 -0.32 L 2.65 -43.6 Q 2.65 -43.85 2.9 -43.85 L 2.9 -43.85 L 10.58 -43.85 Q 10.84 -43.85 11.03 -43.6 L 11.03 -43.6 L 16.76 -35.28 L 22.49 -43.6 Q 22.68 -43.85 22.93 -43.85 L 22.93 -43.85 L 30.68 -43.85 Q 30.93 -43.85 30.93 -43.6 L 30.93 -43.6 L 31.06 -0.32 Q 31.06 0 30.81 0 L 30.81 0 L 23.69 0 Q 23.44 0 23.44 -0.32 L 23.44 -0.32 L 23.37 -32.45 L 16.76 -22.87 L 10.21 -32.45 L 10.14 -0.32 Q 10.14 0 9.89 0 L 9.89 0 Z M 68.67 0 L 48.32 0 Q 48.07 0 48.07 -0.32 L 48.07 -0.32 L 48.13 -43.6 Q 48.13 -43.85 48.38 -43.85 L 48.38 -43.85 L 68.61 -43.85 Q 68.86 -43.85 68.86 -43.53 L 68.86 -43.53 L 68.86 -36.48 Q 68.86 -36.23 68.61 -36.23 L 68.61 -36.23 L 55.69 -36.23 L 55.69 -26.4 L 68.61 -26.4 Q 68.86 -26.4 68.86 -26.14 L 68.86 -26.14 L 68.92 -19.03 Q 68.92 -18.77 68.67 -18.77 L 68.67 -18.77 L 55.69 -18.77 L 55.69 -7.75 L 68.67 -7.75 Q 68.92 -7.75 68.92 -7.43 L 68.92 -7.43 L 68.92 -0.25 Q 68.92 0 68.67 0 L 68.67 0 Z M 97.84 -0.06 L 86.56 0 Q 86.25 0 86.25 -0.32 L 86.25 -0.32 L 86.37 -43.6 Q 86.37 -43.85 86.63 -43.85 L 86.63 -43.85 L 98.41 -43.91 Q 101.87 -43.97 104.74 -42.27 Q 107.6 -40.57 109.31 -37.71 Q 111.01 -34.84 111.01 -31.37 L 111.01 -31.37 L 111.01 -13.29 Q 111.01 -9.64 109.24 -6.65 Q 107.48 -3.65 104.52 -1.89 Q 101.56 -0.13 97.84 -0.06 L 97.84 -0.06 Z M 94 -36.29 L 93.93 -7.75 L 97.84 -7.75 Q 100.17 -7.75 101.78 -9.39 Q 103.38 -11.03 103.38 -13.29 L 103.38 -13.29 L 103.38 -31.44 Q 103.38 -33.45 101.9 -34.93 Q 100.42 -36.41 98.41 -36.35 L 98.41 -36.35 L 94 -36.29 Z M 135.14 0 L 128.02 0 Q 127.7 0 127.7 -0.32 L 127.7 -0.32 L 127.76 -43.6 Q 127.76 -43.85 128.02 -43.85 L 128.02 -43.85 L 135.07 -43.85 Q 135.32 -43.85 135.32 -43.6 L 135.32 -43.6 L 135.39 -0.32 Q 135.39 0 135.14 0 L 135.14 0 Z M 164.24 0.63 L 164.24 0.63 Q 160.78 0.63 157.97 -1.1 Q 155.17 -2.83 153.53 -5.73 Q 151.89 -8.63 151.89 -12.22 L 151.89 -12.22 L 151.96 -31.88 Q 151.96 -35.34 153.56 -38.21 Q 155.17 -41.08 157.97 -42.81 Q 160.78 -44.54 164.24 -44.54 L 164.24 -44.54 Q 167.71 -44.54 170.48 -42.84 Q 173.25 -41.14 174.89 -38.27 Q 176.53 -35.41 176.53 -31.88 L 176.53 -31.88 L 176.53 -28.98 Q 176.53 -28.73 176.27 -28.73 L 176.27 -28.73 L 169.22 -28.73 Q 168.97 -28.73 168.97 -28.98 L 168.97 -28.98 L 168.97 -31.88 Q 168.97 -33.96 167.61 -35.47 Q 166.26 -36.98 164.24 -36.98 L 164.24 -36.98 Q 161.97 -36.98 160.78 -35.44 Q 159.58 -33.89 159.58 -31.88 L 159.58 -31.88 L 159.58 -12.22 Q 159.58 -9.89 160.93 -8.44 Q 162.29 -6.99 164.24 -6.99 L 164.24 -6.99 Q 166.26 -6.99 167.61 -8.6 Q 168.97 -10.21 168.97 -12.22 L 168.97 -12.22 L 168.97 -15.12 Q 168.97 -15.37 169.22 -15.37 L 169.22 -15.37 L 176.34 -15.37 Q 176.59 -15.37 176.59 -15.12 L 176.59 -15.12 L 176.59 -12.22 Q 176.59 -8.63 174.92 -5.73 Q 173.25 -2.83 170.48 -1.1 Q 167.71 0.63 164.24 0.63 Z M 190.57 -0.32 L 190.57 -0.32 L 198.39 -43.6 Q 198.45 -43.85 198.7 -43.85 L 198.7 -43.85 L 207.84 -43.85 Q 208.09 -43.85 208.15 -43.6 L 208.15 -43.6 L 215.65 -0.32 Q 215.71 0 215.4 0 L 215.4 0 L 208.4 0 Q 208.15 0 208.09 -0.32 L 208.09 -0.32 L 207.4 -4.91 L 198.83 -4.91 L 198.13 -0.32 Q 198.07 0 197.82 0 L 197.82 0 L 190.83 0 Q 190.57 0 190.57 -0.32 Z M 202.92 -29.36 L 200.09 -11.65 L 206.14 -11.65 L 203.55 -29.36 L 203.18 -31.69 L 202.92 -29.36 Z M 251.94 0 L 231.59 0 Q 231.34 0 231.34 -0.32 L 231.34 -0.32 L 231.4 -43.53 Q 231.4 -43.85 231.71 -43.85 L 231.71 -43.85 L 238.71 -43.85 Q 239.02 -43.85 239.02 -43.53 L 239.02 -43.53 L 238.96 -7.75 L 251.94 -7.75 Q 252.25 -7.75 252.25 -7.43 L 252.25 -7.43 L 252.25 -0.32 Q 252.25 0 251.94 0 L 251.94 0 Z M 297.3 0.63 L 297.3 0.63 Q 293.89 0.63 291.09 -1.1 Q 288.29 -2.83 286.62 -5.7 Q 284.95 -8.57 284.95 -12.03 L 284.95 -12.03 L 284.95 -14.93 Q 284.95 -15.25 285.26 -15.25 L 285.26 -15.25 L 292.32 -15.25 Q 292.57 -15.25 292.57 -14.93 L 292.57 -14.93 L 292.57 -12.03 Q 292.57 -9.95 293.96 -8.47 Q 295.34 -6.99 297.3 -6.99 L 297.3 -6.99 Q 299.25 -6.99 300.64 -8.51 Q 302.02 -10.02 302.02 -12.03 L 302.02 -12.03 Q 302.02 -14.36 299 -16.07 L 299 -16.07 Q 297.99 -16.63 295.85 -17.83 Q 293.71 -19.03 291.82 -20.1 L 291.82 -20.1 Q 288.35 -22.11 286.68 -25.17 Q 285.01 -28.22 285.01 -32.07 L 285.01 -32.07 Q 285.01 -35.59 286.71 -38.4 Q 288.41 -41.2 291.22 -42.84 Q 294.02 -44.48 297.3 -44.48 L 297.3 -44.48 Q 300.64 -44.48 303.44 -42.81 Q 306.24 -41.14 307.91 -38.34 Q 309.58 -35.53 309.58 -32.07 L 309.58 -32.07 L 309.58 -26.9 Q 309.58 -26.65 309.33 -26.65 L 309.33 -26.65 L 302.27 -26.65 Q 302.02 -26.65 302.02 -26.9 L 302.02 -26.9 L 301.96 -32.07 Q 301.96 -34.27 300.57 -35.66 Q 299.19 -37.04 297.3 -37.04 L 297.3 -37.04 Q 295.34 -37.04 293.96 -35.56 Q 292.57 -34.08 292.57 -32.07 L 292.57 -32.07 Q 292.57 -29.99 293.45 -28.6 Q 294.34 -27.22 296.67 -25.96 L 296.67 -25.96 Q 296.98 -25.77 297.9 -25.29 Q 298.81 -24.82 299.88 -24.22 Q 300.95 -23.63 301.8 -23.18 Q 302.65 -22.74 302.84 -22.62 L 302.84 -22.62 Q 305.99 -20.85 307.82 -18.3 Q 309.64 -15.75 309.64 -12.03 L 309.64 -12.03 Q 309.64 -8.44 307.98 -5.58 Q 306.31 -2.71 303.5 -1.04 Q 300.7 0.63 297.3 0.63 Z M 337.62 0 L 330.37 0 Q 330.18 0 330.18 -0.25 L 330.18 -0.25 L 330.25 -18.14 L 321.8 -43.6 Q 321.74 -43.85 321.99 -43.85 L 321.99 -43.85 L 328.99 -43.85 Q 329.3 -43.85 329.36 -43.6 L 329.36 -43.6 L 334.03 -26.65 L 338.75 -43.6 Q 338.81 -43.85 339.07 -43.85 L 339.07 -43.85 L 346.12 -43.85 Q 346.37 -43.85 346.31 -43.6 L 346.31 -43.6 L 337.81 -18.4 L 337.87 -0.25 Q 337.87 0 337.62 0 L 337.62 0 Z M 368.36 0 L 362.06 0 Q 361.56 0 361.56 -0.44 L 361.56 -0.44 L 361.49 -43.34 Q 361.49 -43.85 362 -43.85 L 362 -43.85 L 367.67 -43.85 L 378.32 -19.03 L 378 -43.34 Q 378 -43.85 378.57 -43.85 L 378.57 -43.85 L 384.8 -43.85 Q 385.18 -43.85 385.18 -43.34 L 385.18 -43.34 L 385.25 -0.38 Q 385.25 0 384.93 0 L 384.93 0 L 379.39 0 L 368.49 -23.18 L 368.93 -0.5 Q 368.93 0 368.36 0 L 368.36 0 Z M 423.05 0 L 402.7 0 Q 402.44 0 402.44 -0.32 L 402.44 -0.32 L 402.51 -43.6 Q 402.51 -43.85 402.76 -43.85 L 402.76 -43.85 L 422.98 -43.85 Q 423.23 -43.85 423.23 -43.53 L 423.23 -43.53 L 423.23 -36.48 Q 423.23 -36.23 422.98 -36.23 L 422.98 -36.23 L 410.07 -36.23 L 410.07 -26.4 L 422.98 -26.4 Q 423.23 -26.4 423.23 -26.14 L 423.23 -26.14 L 423.3 -19.03 Q 423.3 -18.77 423.05 -18.77 L 423.05 -18.77 L 410.07 -18.77 L 410.07 -7.75 L 423.05 -7.75 Q 423.3 -7.75 423.3 -7.43 L 423.3 -7.43 L 423.3 -0.25 Q 423.3 0 423.05 0 L 423.05 0 Z M 447.99 0 L 440.87 0 Q 440.62 0 440.62 -0.32 L 440.62 -0.32 L 440.75 -43.6 Q 440.75 -43.85 441 -43.85 L 441 -43.85 L 453.73 -43.85 Q 457.13 -43.85 459.99 -42.18 Q 462.86 -40.51 464.56 -37.71 Q 466.26 -34.9 466.26 -31.37 L 466.26 -31.37 Q 466.26 -29.04 465.57 -27.18 Q 464.88 -25.33 463.93 -24.03 Q 462.99 -22.74 462.23 -22.11 L 462.23 -22.11 Q 465.63 -18.33 465.63 -13.23 L 465.63 -13.23 L 465.7 -0.32 Q 465.7 0 465.38 0 L 465.38 0 L 458.26 0 Q 458.01 0 458.01 -0.19 L 458.01 -0.19 L 458.01 -13.23 Q 458.01 -15.5 456.4 -17.17 Q 454.8 -18.84 452.47 -18.84 L 452.47 -18.84 L 448.31 -18.84 L 448.25 -0.32 Q 448.25 0 447.99 0 L 447.99 0 Z M 448.31 -36.29 L 448.31 -26.4 L 453.73 -26.4 Q 455.68 -26.4 457.19 -27.85 Q 458.7 -29.3 458.7 -31.37 L 458.7 -31.37 Q 458.7 -33.39 457.22 -34.84 Q 455.74 -36.29 453.73 -36.29 L 453.73 -36.29 L 448.31 -36.29 Z M 493.92 0.63 L 493.92 0.63 Q 490.52 0.63 487.75 -1.07 Q 484.97 -2.77 483.3 -5.64 Q 481.64 -8.51 481.64 -12.03 L 481.64 -12.03 L 481.64 -32 Q 481.64 -35.41 483.3 -38.27 Q 484.97 -41.14 487.78 -42.84 Q 490.58 -44.54 493.92 -44.54 L 493.92 -44.54 Q 497.39 -44.54 500.19 -42.87 Q 502.99 -41.2 504.63 -38.37 Q 506.27 -35.53 506.27 -32 L 506.27 -32 L 506.27 -29.11 Q 506.27 -28.85 505.95 -28.85 L 505.95 -28.85 L 498.9 -28.85 Q 498.65 -28.85 498.65 -29.11 L 498.65 -29.11 L 498.65 -31.5 Q 498.65 -33.89 497.29 -35.47 Q 495.94 -37.04 493.92 -37.04 L 493.92 -37.04 Q 492.09 -37.04 490.68 -35.53 Q 489.26 -34.02 489.26 -32 L 489.26 -32 L 489.26 -12.03 Q 489.26 -9.95 490.64 -8.47 Q 492.03 -6.99 493.92 -6.99 L 493.92 -6.99 Q 495.94 -6.99 497.29 -8.44 Q 498.65 -9.89 498.65 -12.03 L 498.65 -12.03 L 498.65 -15.12 L 494.24 -15.12 Q 493.92 -15.12 493.92 -15.44 L 493.92 -15.44 L 493.92 -22.49 Q 493.92 -22.81 494.24 -22.81 L 494.24 -22.81 L 506.02 -22.81 Q 506.27 -22.81 506.27 -22.49 L 506.27 -22.49 L 506.27 -12.03 Q 506.27 -8.51 504.6 -5.64 Q 502.93 -2.77 500.16 -1.07 Q 497.39 0.63 493.92 0.63 Z M 534.56 0 L 527.31 0 Q 527.12 0 527.12 -0.25 L 527.12 -0.25 L 527.18 -18.14 L 518.74 -43.6 Q 518.68 -43.85 518.93 -43.85 L 518.93 -43.85 L 525.92 -43.85 Q 526.24 -43.85 526.3 -43.6 L 526.3 -43.6 L 530.96 -26.65 L 535.69 -43.6 Q 535.75 -43.85 536 -43.85 L 536 -43.85 L 543.06 -43.85 Q 543.31 -43.85 543.25 -43.6 L 543.25 -43.6 L 534.74 -18.4 L 534.81 -0.25 Q 534.81 0 534.56 0 L 534.56 0 Z" stroke-linecap="round" />
</g>
</g>
</g>
</svg>